<svg xmlns="http://www.w3.org/2000/svg" xmlns:xlink="http://www.w3.org/1999/xlink" id="svg_canvas" data-noselect="" viewBox="0 0 200 200" width="200" height="200" preserveAspectRatio="none" version="1.1">
    <defs/>
    <g id="background" data-noselect="">
        <rect fill="rgba(224, 224, 226,0)" width="200" height="200" data-noselect=""/> <!---->
    </g>
    <g id="shape_QCVZNw9t6R" transform="translate(20,20) rotate(0,79.609064389078,79.609064389078) scale(1,1)" filter="" style="cursor: move; opacity: 1;">
        <g>
            <rect fill="rgba(0,0,0,0)" width="179.21812877816" height="173.16837743233071" x="-10" y="-10"/>
            <svg xmlns="http://www.w3.org/2000/svg" xmlns:xlink="http://www.w3.org/1999/xlink" version="1.1" id="图层_1" x="0px" y="0px" width="159.21812877816" height="153.16837743233071" viewBox="2.5999999046325684 3.299999952316284 115.80000305175781 111.39999389648438" style="enable-background:new 0 0 122 118;" xml:space="preserve" class="style-removed" preserveAspectRatio="none" data-parent="shape_QCVZNw9t6R">

<path d="M28.7,59c0-10.8,5.8-20.3,14.5-25.5c-11.5,5-31,19.3-29.7,58.6c8.9,12.1,22.6,20.4,38.2,22.2  C27.7,92.2,26,72,28.7,59z" fill="#91D9BD" stroke-width="0"/>
                <path d="M43.2,33.6c4.4-2.6,9.6-4.2,15.2-4.2c3.5,0,6.8,0.6,9.9,1.7C58.8,26.3,33.1,18,3.6,48.5c-0.7,3.4-1,7-1,10.6  c0,12.4,4.1,23.9,10.9,33.1C12.2,52.8,31.7,38.5,43.2,33.6z" fill="#27AAE1" stroke-width="0"/>
                <path d="M83.2,42.8c3.1,4.7,4.8,10.2,4.8,16.3c0,0.3,0,0.5,0,0.8C91.6,48,92.5,27.5,70.2,4.6c-3.8-0.8-7.8-1.3-11.8-1.3  c-11,0-21.3,3.2-29.9,8.7C65.7,12.2,78.8,31.9,83.2,42.8z" fill="#F5457E" stroke-width="0"/>
                <path d="M68.3,31.1c6.2,2.2,11.4,6.3,14.9,11.7C78.8,31.9,65.7,12.2,28.4,12C15.7,20.1,6.5,33.2,3.6,48.5  C33.1,18,58.8,26.3,68.3,31.1z" fill="#55B7DA" stroke-width="0"/>
                <path d="M118.4,107.3C82.8,58.5,59.7,84,59.7,84c0,0,0,0,0,0c9.6-3.8,27.6-3.9,51.1,28.2  C115.8,110.4,118.4,107.3,118.4,107.3z" fill="#DCA4DC" stroke-width="0"/>
                <path d="M59.7,84c4.5,3.5,6.6,9.7,14.4,16.8c17.1,14.4,29.4,14.1,36.7,11.4C87.3,80.1,69.2,80.2,59.7,84z" fill="#D681D6" stroke-width="0"/>
                <g>
	<path d="M101.8,47.7c0.1-0.2,0.1-0.4,0.2-0.6C101.9,47.2,101.8,47.4,101.8,47.7z" fill="none" stroke-width="0"/>
                    <path d="M102.5,44.5C102.5,44.4,102.5,44.4,102.5,44.5C102.5,44.4,102.5,44.4,102.5,44.5z" fill="none" stroke-width="0"/>
                    <path d="M103.1,41.6c0-0.2,0.1-0.5,0.1-0.7C103.2,41.1,103.1,41.4,103.1,41.6z" fill="none" stroke-width="0"/>
                    <path d="M103.5,38.5c0-0.2,0.1-0.4,0.1-0.7C103.6,38.1,103.6,38.3,103.5,38.5z" fill="none" stroke-width="0"/>
                    <path d="M103.9,34.9c0-0.2,0-0.4,0-0.7C104,34.4,104,34.7,103.9,34.9z" fill="none" stroke-width="0"/>
                    <path d="M94.8,64C94.8,63.9,94.8,63.9,94.8,64C94.8,63.9,94.8,63.9,94.8,64z" fill="none" stroke-width="0"/>
                    <path d="M104.1,31.6c0-0.3,0-0.6,0-0.9C104.2,31,104.2,31.3,104.1,31.6z" fill="none" stroke-width="0"/>
                    <path d="M93.6,65.8C93.6,65.8,93.6,65.8,93.6,65.8C93.6,65.8,93.6,65.8,93.6,65.8z" fill="none" stroke-width="0"/>
                    <path d="M101.1,50.2c0-0.1,0.1-0.2,0.1-0.3C101.1,50,101.1,50.1,101.1,50.2z" fill="none" stroke-width="0"/>
                    <path d="M97.1,60c0-0.1,0.1-0.2,0.1-0.3C97.2,59.8,97.1,59.9,97.1,60z" fill="none" stroke-width="0"/>
                    <path d="M100.1,53c0-0.1,0.1-0.3,0.1-0.4C100.2,52.7,100.2,52.9,100.1,53z" fill="none" stroke-width="0"/>
                    <path d="M99.2,55.4c0-0.1,0.1-0.2,0.1-0.4C99.3,55.1,99.3,55.3,99.2,55.4z" fill="none" stroke-width="0"/>
                    <path d="M93.6,65.8C93.6,65.8,93.6,65.8,93.6,65.8c0.4-0.6,0.8-1.2,1.2-1.8c0,0,0,0,0-0.1c0.8-1.2,1.5-2.5,2.3-3.9   c0-0.1,0.1-0.2,0.1-0.3c0.7-1.4,1.4-2.8,2-4.3c0-0.1,0.1-0.2,0.1-0.4c0.3-0.7,0.5-1.3,0.8-2c0-0.1,0.1-0.3,0.1-0.4   c0.3-0.8,0.5-1.6,0.8-2.4c0-0.1,0.1-0.2,0.1-0.3c0.2-0.7,0.4-1.5,0.6-2.2c0.1-0.2,0.1-0.4,0.2-0.6c0.2-0.8,0.4-1.7,0.6-2.6   c0,0,0-0.1,0-0.1c0.2-0.9,0.4-1.8,0.5-2.8c0-0.2,0.1-0.5,0.1-0.7c0.1-0.8,0.2-1.6,0.3-2.3c0-0.2,0.1-0.4,0.1-0.7c0.1-1,0.2-2,0.3-3   c0-0.2,0-0.4,0-0.7c0.1-0.8,0.1-1.7,0.2-2.6c0-0.3,0-0.6,0-0.9c0-1.1,0.1-2.2,0.1-3.3C96.4,16,84.3,7.6,70.2,4.6   C92.5,27.5,91.6,48,88,59.9c-0.1,2.8-0.5,5.4-1.3,7.9c1.4,0.3,2.9,0.7,4.4,1.2C91.9,68,92.8,66.9,93.6,65.8z" fill="#F77E79" stroke-width="0"/>
                    <path d="M108.7,80.2c0.3,0.3,0.6,0.5,1,0.8c1.9-4.4,3.2-9.1,3.9-14c-3.4,3.5-6.7,6.4-10,8.9   C105.2,77.1,106.9,78.6,108.7,80.2z" fill="#F3C79F" stroke-width="0"/>
                    <path d="M104.1,31.6c0,0.9-0.1,1.7-0.2,2.6c0,0.2,0,0.4,0,0.7c-0.1,1-0.2,2-0.3,3c0,0.2-0.1,0.4-0.1,0.7   c-0.1,0.8-0.2,1.6-0.3,2.3c0,0.2-0.1,0.5-0.1,0.7c-0.2,0.9-0.3,1.9-0.5,2.8c0,0,0,0.1,0,0.1c-0.2,0.9-0.4,1.7-0.6,2.6   c-0.1,0.2-0.1,0.4-0.2,0.6c-0.2,0.8-0.4,1.5-0.6,2.2c0,0.1-0.1,0.2-0.1,0.3c-0.3,0.8-0.5,1.6-0.8,2.4c0,0.1-0.1,0.3-0.1,0.4   c-0.2,0.7-0.5,1.4-0.8,2c0,0.1-0.1,0.2-0.1,0.4c-0.6,1.5-1.3,3-2,4.3c0,0.1-0.1,0.2-0.1,0.3c-0.7,1.4-1.5,2.7-2.3,3.9   c0,0,0,0,0,0.1c-0.4,0.6-0.8,1.2-1.2,1.8c0,0,0,0,0,0c-0.8,1.1-1.6,2.2-2.5,3.2c3.8,1.3,8,3.5,12.5,6.9c3.3-2.5,6.6-5.4,10-8.9   c0.4-2.6,0.6-5.2,0.6-7.9c0-11.8-3.6-22.7-9.9-31.6c0,1.1,0,2.2-0.1,3.3C104.2,31,104.2,31.3,104.1,31.6z" fill="#F99F22" stroke-width="0"/>
                    <path d="M94.8,63.9c0.8-1.2,1.5-2.5,2.3-3.9C96.4,61.4,95.6,62.7,94.8,63.9z" fill="#F99F22" stroke-width="0"/>
                    <path d="M97.2,59.7c0.7-1.4,1.4-2.8,2-4.3C98.6,56.9,97.9,58.3,97.2,59.7z" fill="#F99F22" stroke-width="0"/>
                    <path d="M103.6,37.9c0.1-1,0.2-2,0.3-3C103.8,35.9,103.7,36.9,103.6,37.9z" fill="#F99F22" stroke-width="0"/>
                    <path d="M93.6,65.8c0.4-0.6,0.8-1.2,1.2-1.8C94.4,64.6,94,65.2,93.6,65.8z" fill="#F99F22" stroke-width="0"/>
                    <path d="M93.6,65.8c-0.8,1.1-1.6,2.2-2.5,3.2c0,0,0,0,0,0C91.9,68,92.8,66.9,93.6,65.8z" fill="#F99F22" stroke-width="0"/>
                    <path d="M104,34.2c0.1-0.8,0.1-1.7,0.2-2.6C104.1,32.5,104,33.4,104,34.2z" fill="#F99F22" stroke-width="0"/>
                    <path d="M99.4,55c0.3-0.7,0.5-1.3,0.8-2C99.9,53.7,99.6,54.4,99.4,55z" fill="#F99F22" stroke-width="0"/>
                    <path d="M101.9,47c0.2-0.8,0.4-1.7,0.6-2.6C102.4,45.3,102.1,46.2,101.9,47z" fill="#F99F22" stroke-width="0"/>
                    <path d="M102.6,44.4c0.2-0.9,0.4-1.8,0.5-2.8C102.9,42.6,102.7,43.5,102.6,44.4z" fill="#F99F22" stroke-width="0"/>
                    <path d="M103.2,40.9c0.1-0.8,0.2-1.6,0.3-2.3C103.4,39.3,103.3,40.1,103.2,40.9z" fill="#F99F22" stroke-width="0"/>
                    <path d="M104.3,27.4c0,1.1,0,2.2-0.1,3.3C104.2,29.7,104.3,28.6,104.3,27.4z" fill="#F99F22" stroke-width="0"/>
                    <path d="M101.2,49.9c0.2-0.7,0.4-1.5,0.6-2.2C101.6,48.4,101.4,49.2,101.2,49.9z" fill="#F99F22" stroke-width="0"/>
                    <path d="M100.3,52.6c0.3-0.8,0.5-1.6,0.8-2.4C100.8,51,100.6,51.8,100.3,52.6z" fill="#F99F22" stroke-width="0"/>
</g>
                <path d="M74,100.9c-5.2-4.8-7.9-9.2-10.5-12.6c-1.7,0.3-3.5,0.5-5.2,0.5c-5.2,0-10.2-1.4-14.4-3.8c-1-0.6-2.1-1.2-3-1.9  c3.3,4.2,7.8,8.4,13.9,11.8c5.4,3,12.1,5.5,20.3,6.9C74.8,101.5,74.4,101.2,74,100.9z" fill="#F3C79F" stroke-width="0"/>
                <path d="M75.1,101.7c-8.2-1.4-14.9-3.8-20.3-6.9c-6.1-3.5-10.6-7.7-13.9-11.8c-7.4-5.4-12.2-14.1-12.2-24  c0,0,0,0,0-0.1c-2.7,13-0.9,33.2,23,55.4c2.2,0.3,4.4,0.4,6.7,0.4c4.7,0,9.2-0.6,13.6-1.7c4.4-1.1,8.7-2.8,12.6-4.9  C81.6,106.6,78.4,104.5,75.1,101.7z" fill="#62CAB0" stroke-width="0"/>
</svg>
        </g>
    </g>
</svg>